<svg width="512" height="512" viewBox="0 0 512 512" fill="none" xmlns="http://www.w3.org/2000/svg">
  <defs>
    <linearGradient id="g1" x1="96" y1="88" x2="416" y2="424" gradientUnits="userSpaceOnUse">
      <stop offset="0" stop-color="#2E6BFF"/>
      <stop offset="1" stop-color="#00C2FF"/>
    </linearGradient>
    <linearGradient id="g2" x1="164" y1="168" x2="350" y2="344" gradientUnits="userSpaceOnUse">
      <stop offset="0" stop-color="#111827"/>
      <stop offset="1" stop-color="#374151"/>
    </linearGradient>
  </defs>

  <rect x="0" y="0" width="512" height="512" rx="120" fill="#F8FAFC"/>

  <path d="M256 96C167.6 96 96 167.6 96 256C96 344.4 167.6 416 256 416C317.6 416 371 380.8 397.4 329.6L352.8 304.8C334.6 339.8 298.2 364 256 364C196.4 364 148 315.6 148 256C148 196.4 196.4 148 256 148C297.2 148 333 171.2 351.6 205.2L396.2 180.4C369.6 129.8 316.8 96 256 96Z" fill="url(#g1)"/>

  <rect x="168" y="164" width="176" height="184" rx="56" fill="url(#g2)"/>
  <circle cx="226" cy="236" r="14" fill="#00C2FF"/>
  <circle cx="286" cy="236" r="14" fill="#00C2FF"/>
  <rect x="210" y="286" width="92" height="18" rx="9" fill="#9CA3AF"/>

  <rect x="247" y="124" width="18" height="44" rx="9" fill="#2E6BFF"/>
  <circle cx="256" cy="114" r="12" fill="#00C2FF"/>
</svg>
